<svg xmlns="http://www.w3.org/2000/svg" xmlns:xlink="http://www.w3.org/1999/xlink" viewBox="0 0 49.999 43.999">
  <defs>
    <style>
      .cls-1 {
        fill: none;
      }

      .cls-2 {
        clip-path: url(#clip-path);
      }

      .cls-3 {
        fill: rgba(0,0,0,0);
      }

      .cls-4 {
        fill: #666;
      }
    </style>
    <clipPath id="clip-path">
      <path id="ic_analytic_graph" data-name="ic_analytic graph" class="cls-1" d="M33,44a1.007,1.007,0,0,1-.866-.486L26.465,34H23.531l-5.668,9.515A1.009,1.009,0,0,1,17,44a1.02,1.02,0,0,1-.5-.13.964.964,0,0,1-.468-.6.938.938,0,0,1,.1-.727L21.222,34H5.285A3.2,3.2,0,0,1,2,30.908V3.091A2.883,2.883,0,0,1,2.232,2H1A1,1,0,1,1,1,0H5.269l.016,0H44.712l.016,0H49a1,1,0,1,1,0,2H47.767A2.9,2.9,0,0,1,48,3.091V30.908A3.2,3.2,0,0,1,44.714,34H28.777l5.087,8.546a.925.925,0,0,1,.1.725.964.964,0,0,1-.468.6A1.037,1.037,0,0,1,33,44ZM4,2V30.427a1.569,1.569,0,0,0,1.582,1.552H44.417A1.57,1.57,0,0,0,46,30.427V2Zm6.907,22.045a.952.952,0,0,1-.678-.281.964.964,0,0,1,0-1.355l8.129-8.123a.953.953,0,0,1,1.354,0,.026.026,0,0,1,.009.019.037.037,0,0,0,.009.021.033.033,0,0,0,.018.008.028.028,0,0,1,.018.008l9.09,7.259,9.376-11.259a1,1,0,1,1,1.422,1.42L29.732,23.677a.034.034,0,0,0-.006.017.023.023,0,0,1-.008.017,1.03,1.03,0,0,1-1.436,0,.074.074,0,0,0-.005-.018l-9.238-7.378-7.454,7.452A.952.952,0,0,1,10.907,24.048Z" transform="translate(0 0)"/>
    </clipPath>
  </defs>
  <g id="Group_1893" data-name="Group 1893" class="cls-2">
    <g id="icon_color" data-name="icon color" transform="translate(0 -4)">
      <rect id="icon_color_background" data-name="icon color background" class="cls-3" width="50" height="50"/>
      <rect id="Gary_40" data-name="Gary 40" class="cls-4" width="50" height="50"/>
    </g>
  </g>
</svg>
