<svg xmlns="http://www.w3.org/2000/svg" viewBox="0 0 48.408 48.179">
  <defs>
    <style>
      .cls-1, .cls-2 {
        fill: none;
      }

      .cls-2 {
        stroke: #35cc62;
        stroke-width: 1.5px;
      }

      .cls-3, .cls-4 {
        stroke: none;
      }

      .cls-4 {
        fill: #35cc62;
      }
    </style>
  </defs>
  <g id="branding" transform="translate(-4141.97 109.149)">
    <g id="Group_91" data-name="Group 91">
      <g id="Group_90" data-name="Group 90">
        <g id="Group_89" data-name="Group 89" transform="translate(26 9)">
          <g id="Path_687" data-name="Path 687" class="cls-1" transform="translate(4128 -112)">
            <path class="cls-3" d="M36.135-5.9a141.89,141.89,0,0,1,0,15.87c-.373,1.386-10.547,5.224-10.547,5.224l6.106,3.775s-8.625,10.1-18.284,10.428S1.941,28.18,1.941,28.18C1.811,27.34-.811,21.4-.168,16.5.6,10.62,4.985,4.422,9.379-.13,16.946-7.968,32.621-5.9,36.135-5.9Z"/>
            <path class="cls-4" d="M 28.98473739624023 -4.649131774902344 C 25.1561164855957 -4.649131774902344 21.91210746765137 -4.308570861816406 19.06732749938965 -3.607980728149414 C 15.37127685546875 -2.697751998901367 12.47488784790039 -1.177131652832031 10.45857810974121 0.9116992950439453 C 8.110427856445313 3.34406852722168 6.059198379516602 5.957188606262207 4.526638031005859 8.468568801879883 C 2.726768493652344 11.41798877716064 1.647506713867188 14.18569850921631 1.31878662109375 16.69518852233887 C 0.854278564453125 20.23452758789063 2.311996459960938 24.51886749267578 3.012538909912109 26.57781791687012 C 3.085262298583984 26.79155349731445 3.146457672119141 26.97197341918945 3.197807312011719 27.12748336791992 C 3.974628448486328 27.40534973144531 6.085136413574219 27.94076919555664 10.81119728088379 27.94076919555664 C 11.6146068572998 27.94076919555664 12.47179794311523 27.92525863647461 13.35895729064941 27.89466857910156 C 15.35335731506348 27.82589912414551 17.48207664489746 27.28079795837402 19.68597793579102 26.27452850341797 C 21.49580764770508 25.44818878173828 23.35609817504883 24.31275939941406 25.21516799926758 22.89977836608887 C 26.97894287109375 21.5592212677002 28.40981292724609 20.21737098693848 29.3446102142334 19.27627754211426 L 24.79918670654297 16.46654891967773 L 22.20569610595703 14.86339855194092 L 25.05842781066895 13.78718852996826 C 25.08052825927734 13.77884864807129 27.29602813720703 12.94158840179443 29.65510749816895 11.92592811584473 C 33.10452651977539 10.44084644317627 34.29337692260742 9.682819366455078 34.67938232421875 9.387701988220215 C 35.03804779052734 4.949823379516602 34.82155990600586 -1.628654479980469 34.70121002197266 -4.452970504760742 C 34.51266860961914 -4.462545394897461 34.31334686279297 -4.473081588745117 34.10315704345703 -4.48419189453125 C 32.78621673583984 -4.553800582885742 30.98259735107422 -4.649131774902344 28.98473739624023 -4.649131774902344 M 28.9847412109375 -6.149135589599609 C 32.26168060302734 -6.149135589599609 34.92206573486328 -5.90315055847168 36.134765625 -5.90315055847168 C 36.134765625 -5.90315055847168 36.68114852905273 4.082887649536133 36.134765625 9.966948509216309 C 35.76175689697266 11.35247898101807 25.58788681030273 15.19063854217529 25.58788681030273 15.19063854217529 L 31.69433784484863 18.96530914306641 C 31.69433784484863 18.96530914306641 23.06933784484863 29.06071853637695 13.41064834594727 29.39377784729004 C 12.47213172912598 29.4261417388916 11.60706520080566 29.44076347351074 10.81119918823242 29.44076347351074 C 3.416454315185547 29.44076347351074 1.94091796875 28.17995834350586 1.94091796875 28.17995834350586 C 1.811496734619141 27.33993911743164 -0.8112411499023438 21.39773941040039 -0.1684608459472656 16.49999809265137 C 0.6017379760742188 10.62019824981689 4.98455810546875 4.422359466552734 9.379398345947266 -0.1301116943359375 C 14.33411407470703 -5.263031005859375 22.76753616333008 -6.149135589599609 28.9847412109375 -6.149135589599609 Z"/>
          </g>
          <line id="Line_18" data-name="Line 18" class="cls-2" y1="47" x2="47" transform="translate(4116.5 -117.5)"/>
          <line id="Line_19" data-name="Line 19" class="cls-2" x2="5" y2="5" transform="translate(4131.5 -103.5)"/>
          <line id="Line_20" data-name="Line 20" class="cls-2" x2="5" y2="5" transform="translate(4135.5 -108.5)"/>
        </g>
      </g>
    </g>
  </g>
</svg>
