<svg xmlns="http://www.w3.org/2000/svg" xmlns:xlink="http://www.w3.org/1999/xlink" width="72" height="57" viewBox="0 0 72 57"><defs><linearGradient id="a" x1="0.888" y1="0.606" x2="0.152" y2="0.606" gradientUnits="objectBoundingBox"><stop offset="0" stop-color="#ff666e"/><stop offset="1" stop-color="#ffa36e"/></linearGradient><filter id="b" x="0" y="0" width="72" height="39" filterUnits="userSpaceOnUse"><feOffset input="SourceAlpha"/><feGaussianBlur stdDeviation="6" result="c"/><feFlood flood-opacity="0.161"/><feComposite operator="in" in2="c"/><feComposite in="SourceGraphic"/></filter><filter id="e" x="3" y="9" width="66" height="39" filterUnits="userSpaceOnUse"><feOffset input="SourceAlpha"/><feGaussianBlur stdDeviation="6" result="f"/><feFlood flood-opacity="0.161"/><feComposite operator="in" in2="f"/><feComposite in="SourceGraphic"/></filter><filter id="h" x="6" y="18" width="60" height="39" filterUnits="userSpaceOnUse"><feOffset input="SourceAlpha"/><feGaussianBlur stdDeviation="6" result="i"/><feFlood flood-opacity="0.161"/><feComposite operator="in" in2="i"/><feComposite in="SourceGraphic"/></filter></defs><g transform="translate(-145 -80)"><g transform="matrix(1, 0, 0, 1, 145, 80)" filter="url(#b)"><path d="M1.5,3a1.5,1.5,0,1,1,0-3h33a1.5,1.5,0,1,1,0,3Z" transform="translate(18 18)" fill="url(#a)"/></g><g transform="matrix(1, 0, 0, 1, 145, 80)" filter="url(#e)"><path d="M1.5,3a1.5,1.5,0,1,1,0-3h27a1.5,1.5,0,1,1,0,3Z" transform="translate(21 27)" fill="url(#a)"/></g><g transform="matrix(1, 0, 0, 1, 145, 80)" filter="url(#h)"><path d="M1.5,3a1.5,1.5,0,1,1,0-3h21a1.5,1.5,0,1,1,0,3Z" transform="translate(24 36)" fill="url(#a)"/></g></g></svg>