<svg xmlns="http://www.w3.org/2000/svg" xmlns:xlink="http://www.w3.org/1999/xlink" viewBox="0 0 264.835 47.169"><defs><style>.a{fill:url(#a);}.b{fill:url(#b);}.c{fill:url(#c);}.d{fill:#ff395d;}</style><linearGradient id="a" x1="0.354" y1="-0.358" x2="0.632" y2="1.891" gradientUnits="objectBoundingBox"><stop offset="0" stop-color="#ff0844"/><stop offset="1" stop-color="#ffb199"/></linearGradient><linearGradient id="b" x1="-0.324" y1="-0.23" x2="0.917" y2="1.246" xlink:href="#a"/><linearGradient id="c" x1="-0.561" y1="-0.447" x2="0.822" y2="1.338" xlink:href="#a"/></defs><g transform="translate(3037.07 -60)"><path d="M1.318-9.653a10.052,10.052,0,0,1,2.761-7.31A9.48,9.48,0,0,1,11.191-19.8a9.105,9.105,0,0,1,5.3,1.407q2.029,1.407,2.029,2.649a1.44,1.44,0,0,1-.439,1.087,2.3,2.3,0,0,1-.886.562q-.447.141-.476.052a5.525,5.525,0,0,0-2.307-2.241,6.736,6.736,0,0,0-3.186-.791A6.248,6.248,0,0,0,6.4-15.038,7.545,7.545,0,0,0,4.526-9.727a7.568,7.568,0,0,0,1.9,5.319,6.286,6.286,0,0,0,4.849,2.079,6.574,6.574,0,0,0,3.494-.925A4.937,4.937,0,0,0,16.89-5.747q.029-.089.513.03a2.186,2.186,0,0,1,.945.54,1.406,1.406,0,0,1,.461,1.088q0,1.36-2.117,2.923A9.189,9.189,0,0,1,11.1.4,9.412,9.412,0,0,1,4.05-2.41,9.946,9.946,0,0,1,1.318-9.653Zm22.4,7.248a9.964,9.964,0,0,1-2.726-7.255,10.027,10.027,0,0,1,2.77-7.3A9.42,9.42,0,0,1,30.813-19.8,9.416,9.416,0,0,1,37.88-17a10,10,0,0,1,2.726,7.273,10.026,10.026,0,0,1-2.755,7.28A9.413,9.413,0,0,1,30.784.4,9.424,9.424,0,0,1,23.717-2.405Zm.365-7.321a7.6,7.6,0,0,0,1.892,5.321,6.253,6.253,0,0,0,4.839,2.077,6.261,6.261,0,0,0,4.825-2.04,7.507,7.507,0,0,0,1.877-5.291A7.616,7.616,0,0,0,35.616-15a6.258,6.258,0,0,0-4.839-2.084,6.252,6.252,0,0,0-4.817,2.04A7.539,7.539,0,0,0,24.082-9.727ZM43.989-1.714V-17.666a1.734,1.734,0,0,1,.468-1.26,1.581,1.581,0,0,1,1.186-.483h4.742q4.947,0,7.728,2.563a9.163,9.163,0,0,1,2.781,7.09A9.207,9.207,0,0,1,58.047-2.6,11.163,11.163,0,0,1,50.224,0H45.7a1.628,1.628,0,0,1-1.215-.513A1.67,1.67,0,0,1,43.989-1.714Zm3.091-.894h3.233a7.715,7.715,0,0,0,5.529-1.861A6.9,6.9,0,0,0,57.8-9.727a6.827,6.827,0,0,0-1.975-5.2A7.645,7.645,0,0,0,50.342-16.8H47.08ZM64.57-1.289V-18.12q0-1.406,1.318-1.406h.425q1.348,0,1.348,1.406V-1.289q0,1.406-1.348,1.406h-.425Q64.57.117,64.57-1.289Zm7.485,0V-17.783a1.959,1.959,0,0,1,.382-1.274,1.34,1.34,0,0,1,1.1-.469h.5a1.779,1.779,0,0,1,1.029.256,3.869,3.869,0,0,1,.838.916L85.547-4.746V-18.12q0-1.406,1.27-1.406h.346q1.241,0,1.241,1.406V-1.626a1.944,1.944,0,0,1-.386,1.274,1.281,1.281,0,0,1-1.043.469h-.233a1.835,1.835,0,0,1-.955-.19,2.893,2.893,0,0,1-.693-.732L75.029-15.117V-1.289q0,1.406-1.345,1.406h-.344Q72.056.117,72.056-1.289Zm19.7-8.371a10,10,0,0,1,2.782-7.3,9.636,9.636,0,0,1,7.2-2.84,9.382,9.382,0,0,1,5.291,1.367q2.056,1.367,2.056,2.7a1.434,1.434,0,0,1-.4,1.041,1.752,1.752,0,0,1-.813.517q-.41.1-.469.014a5.74,5.74,0,0,0-2.392-2.154,7.147,7.147,0,0,0-3.211-.757,6.393,6.393,0,0,0-4.931,2.067,7.632,7.632,0,0,0-1.9,5.38,8.061,8.061,0,0,0,1.785,5.411,5.994,5.994,0,0,0,4.814,2.1,6.3,6.3,0,0,0,3.929-1.207,4.7,4.7,0,0,0,1.88-3.136V-7.734h-4.556q-1.553,0-1.567-1.158v-.145q0-1.187,1.567-1.187h5.64q1.655,0,1.641,1.758V-.176q0,.059-.132.117a2.293,2.293,0,0,1-.374.117,2.138,2.138,0,0,1-.505.059q-1.685,0-1.685-2.493v-.352Q105.486.366,100.965.366a8.553,8.553,0,0,1-6.681-2.807A10.383,10.383,0,0,1,91.758-9.66Zm27.2,8.371V-18.12q0-1.406,1.289-1.406h.454q1.348,0,1.348,1.4v7.034H132.29v-7.034q0-1.4,1.289-1.4h.439q1.348,0,1.362,1.406V-1.289A1.224,1.224,0,0,1,134.019.117h-.439q-1.289,0-1.289-1.406V-8.364H122.051v7.075q0,1.406-1.348,1.406h-.454Q118.96.117,118.96-1.289Zm20.3-6.606V-18.12q0-1.406,1.318-1.406h.425q1.348,0,1.348,1.407V-7.974q0,5.615,4.827,5.615T152.007-8V-18.119q0-1.407,1.318-1.407h.483q1.289,0,1.289,1.406V-7.954a8.626,8.626,0,0,1-2.036,6.182A7.779,7.779,0,0,1,147.151.366a7.741,7.741,0,0,1-5.881-2.109Q139.263-3.853,139.263-7.9Zm19.731,6.152V-17.666a1.762,1.762,0,0,1,.455-1.26,1.578,1.578,0,0,1,1.2-.483h6.406a7.939,7.939,0,0,1,4.878,1.286,4.413,4.413,0,0,1,1.69,3.741q0,3.144-3.428,4.168a5.614,5.614,0,0,1,3.15,1.743A4.57,4.57,0,0,1,174.4-5.435a4.773,4.773,0,0,1-1.807,4.08Q170.79,0,167,0h-6.346a1.578,1.578,0,0,1-1.2-.483A1.763,1.763,0,0,1,158.994-1.743Zm3.091-.747h4.855a5.593,5.593,0,0,0,3.283-.732,2.868,2.868,0,0,0,.973-2.446q0-3.062-4.168-3.062h-4.943Zm0-8.5h4.755a3.905,3.905,0,0,0,2.634-.816,2.775,2.775,0,0,0,.947-2.216q0-2.9-3.639-2.9h-4.7Z" transform="translate(-3008 92.805)"/><g transform="translate(-2820 60)"><path class="a" d="M49.013,3.315a2,2,0,0,0-1.361,0L26.965,10.838l21.367,8.14L69.7,10.838Z" transform="translate(-24.449 -3.196)"/><path class="b" d="M277.333,128.855V156.74l20.583-7.483a1.992,1.992,0,0,0,1.31-1.871v-26.87Z" transform="translate(-251.46 -109.571)"/><path class="c" d="M0,147.386a1.992,1.992,0,0,0,1.31,1.871l20.583,7.483V128.855L0,120.516Z" transform="translate(0 -109.571)"/></g><path class="d" d="M1.934-3.738Q1.848-5.328,4.082-6.51l9.99-5.156L4.082-16.8q-2.234-1.139-2.148-2.729a2.652,2.652,0,0,1,.312-1.042,3.079,3.079,0,0,1,.548-.773q.279-.269.43-.226l13.9,7.541a2.577,2.577,0,0,1,1.311,2.417A2.577,2.577,0,0,1,17.123-9.2L3.223-1.719q-.129.043-.419-.193a2.4,2.4,0,0,1-.559-.741A2.711,2.711,0,0,1,1.934-3.738Z" transform="translate(-3039 95.576)"/></g></svg>