<svg xmlns="http://www.w3.org/2000/svg" xmlns:xlink="http://www.w3.org/1999/xlink" width="265" height="53.887" viewBox="0 0 265 53.887"><defs><linearGradient id="a" x1="0.354" y1="-0.358" x2="0.632" y2="1.891" gradientUnits="objectBoundingBox"><stop offset="0" stop-color="#ff0844"/><stop offset="1" stop-color="#ffb199"/></linearGradient><linearGradient id="b" x1="-0.324" y1="-0.23" x2="0.917" y2="1.246" xlink:href="#a"/><linearGradient id="c" x1="-0.561" y1="-0.447" x2="0.822" y2="1.338" xlink:href="#a"/></defs><g transform="translate(-138 -74)"><text transform="translate(210 113)" fill="#ff666e" font-size="33" font-family="AvenirNextLTPro-Bold, Avenir Next LT Pro" font-weight="700"><tspan x="0" y="0">Coding Hub</tspan></text><g transform="translate(138 74)"><path d="M52.153,3.332a2.284,2.284,0,0,0-1.555,0L26.965,11.927l24.41,9.3,24.41-9.3Z" transform="translate(-24.091 -3.196)" fill="url(#a)"/><path d="M277.333,130.042V161.9l23.514-8.549a2.276,2.276,0,0,0,1.5-2.137v-30.7Z" transform="translate(-247.775 -108.012)" fill="url(#b)"/><path d="M0,151.213a2.276,2.276,0,0,0,1.5,2.137L25.01,161.9V130.042L0,120.516Z" transform="translate(0 -108.012)" fill="url(#c)"/></g></g></svg>