<svg xmlns="http://www.w3.org/2000/svg" xmlns:xlink="http://www.w3.org/1999/xlink" viewBox="0 0 354.474 350.05"><defs><style>.a{fill:url(#a);}.b{fill:url(#b);}.c{fill:url(#c);}</style><linearGradient id="a" x1="0.354" y1="-0.358" x2="0.632" y2="1.891" gradientUnits="objectBoundingBox"><stop offset="0" stop-color="#ff0844"/><stop offset="1" stop-color="#ffb199"/></linearGradient><linearGradient id="b" x1="-0.324" y1="-0.23" x2="0.917" y2="1.246" xlink:href="#a"/><linearGradient id="c" x1="-0.561" y1="-0.447" x2="0.822" y2="1.338" xlink:href="#a"/></defs><path class="a" d="M190.585,4.082a14.836,14.836,0,0,0-10.1,0L26.965,59.912,185.534,120.32,344.1,59.912Z" transform="translate(-8.296 -3.196)"/><path class="b" d="M277.333,182.4V389.341l152.749-55.534a14.785,14.785,0,0,0,9.718-13.883V120.516Z" transform="translate(-85.326 -39.291)"/><path class="c" d="M0,319.923a14.786,14.786,0,0,0,9.718,13.883l152.749,55.534V182.4L0,120.516Z" transform="translate(0 -39.291)"/></svg>