<svg xmlns="http://www.w3.org/2000/svg" xmlns:xlink="http://www.w3.org/1999/xlink" width="744.694" height="657.987" viewBox="0 0 744.694 657.987">
  <defs>
    <linearGradient id="linear-gradient" x1="0.5" y1="1" x2="0.5" gradientUnits="objectBoundingBox">
      <stop offset="0" stop-color="gray" stop-opacity="0.251"/>
      <stop offset="0.54" stop-color="gray" stop-opacity="0.122"/>
      <stop offset="1" stop-color="gray" stop-opacity="0.102"/>
    </linearGradient>
  </defs>
  <g id="form_img" transform="translate(-134.945 -10109)">
    <path id="Path_1566" data-name="Path 1566" d="M204.962,727.05s-5.039,6.566,2.323,16.53,13.428,18.344,10.974,24.541c0,0-11.1-18.467-20.141-18.73S195.014,738.155,204.962,727.05Z" transform="translate(-19.873 9938.336)" fill="#ff3463"/>
    <path id="Path_1567" data-name="Path 1567" d="M204.958,727.05a8.21,8.21,0,0,0-1.034,2.068c-8.815,10.366-13.518,20.051-5.064,20.273,7.9.23,17.376,14.347,19.641,17.917a7.854,7.854,0,0,1-.271.821s-11.1-18.467-20.142-18.73S195.01,738.155,204.958,727.05Z" transform="translate(-19.869 9938.336)" opacity="0.1"/>
    <path id="Path_1568" data-name="Path 1568" d="M196,736.956c0,2.315.263,4.194.583,4.194s.583-1.879.583-4.194-.328-1.231-.648-1.231S196,734.641,196,736.956Z" transform="translate(-20.292 9936.826)" fill="#ffd037"/>
    <path id="Path_1569" data-name="Path 1569" d="M191.839,740.3c2.035,1.108,3.808,1.781,3.956,1.5s-1.371-1.412-3.406-2.52-1.231-.3-1.387,0S189.8,739.2,191.839,740.3Z" transform="translate(-19.324 9936.244)" fill="#ffd037"/>
    <g id="Group_2059" data-name="Group 2059">
      <ellipse id="Ellipse_303" data-name="Ellipse 303" cx="65.776" cy="19.271" rx="65.776" ry="19.271" transform="translate(306.734 10722.371)" fill="#ff3463" opacity="0.1"/>
      <ellipse id="Ellipse_304" data-name="Ellipse 304" cx="283.31" cy="13.666" rx="283.31" ry="13.666" transform="translate(243.363 10634.755)" fill="#ff3463" opacity="0.1"/>
      <path id="Path_1502" data-name="Path 1502" d="M376.284,74.817C401.555,52.3,441.214,47.732,477.311,49.5,590.708,55.135,693.064,109.88,781.6,171.8c32.01,22.415,63.609,46.57,84.415,77.439,42.351,62.837,29.794,149.9-29.1,201.661-20.035,17.614-44.321,31.115-69.264,43.09-44.321,21.282-92.18,38.362-142.5,43.229-35.884,3.464-72.227.648-107.889-4.194-99.681-13.51-197.524-43.4-279.526-94.543-35.966-22.431-69.863-50.313-84.694-86.59s-5.335-82.265,31.394-103.744c15.184-8.889,33.348-12.894,51.125-16.661,26.174-5.548,52.767-11.015,76.38-22.292,24.4-11.638,53.284-34.16,48.425-59.916C355.207,121.592,351.045,97.306,376.284,74.817Z" transform="translate(-11.39 10059.84)" fill="#ff3463" opacity="0.1"/>
      <rect id="Rectangle_1656" data-name="Rectangle 1656" width="578.981" height="449.547" rx="22.82" transform="translate(239.383 10198.874)" fill="#474157"/>
      <rect id="Rectangle_1657" data-name="Rectangle 1657" width="486.654" height="366.716" transform="translate(285.977 10239.428)" fill="#ededf4"/>
      <circle id="Ellipse_305" data-name="Ellipse 305" cx="7.978" cy="7.978" r="7.978" transform="translate(259.015 10414.808)" fill="#e6e8ec"/>
      <circle id="Ellipse_306" data-name="Ellipse 306" cx="13.157" cy="13.157" r="13.157" transform="translate(781.044 10410.49)" fill="#e6e8ec"/>
      <path id="Path_1503" data-name="Path 1503" d="M657.261,402.044a.689.689,0,0,1,1.116.542v23.605a5.54,5.54,0,0,1-5.54,5.54H604.79a5.54,5.54,0,0,1-5.54-5.54v-23.6a.7.7,0,0,1,1.124-.542c2.586,2.011,6.008,4.563,17.786,13.132,2.462,1.773,6.566,5.516,10.67,5.491s8.314-3.784,10.67-5.491C651.253,406.616,654.676,404.055,657.261,402.044ZM628.83,416.957c2.676,0,6.566-3.373,8.47-4.777,15.315-11.121,16.481-12.09,20.018-14.856a2.782,2.782,0,0,0,1.059-2.183V392.95a5.54,5.54,0,0,0-5.54-5.54H604.79a5.54,5.54,0,0,0-5.54,5.54v2.191a2.8,2.8,0,0,0,1.059,2.183c3.537,2.758,4.7,3.734,20.018,14.856,1.937,1.4,5.795,4.818,8.47,4.777Z" transform="translate(-92.57 9999.213)" fill="#ff3463"/>
      <path id="Path_1504" data-name="Path 1504" d="M518.918,308.18h-45.5a5.253,5.253,0,0,0-5.245,5.253v31.534a5.253,5.253,0,0,0,5.245,5.253h45.5a5.261,5.261,0,0,0,5.253-5.253V313.433A5.261,5.261,0,0,0,518.918,308.18Zm0,5.253v4.448c-2.462,1.995-6.369,5.105-14.724,11.647-1.847,1.453-5.491,4.925-8.035,4.925s-6.189-3.439-8.027-4.925c-8.364-6.566-12.311-9.652-14.733-11.647v-4.465Zm-45.5,31.534v-20.33c2.511,1.994,6.065,4.8,11.491,9.028,2.4,1.88,6.566,6.033,11.277,6.008s8.807-4.1,11.277-6.008c5.417-4.243,8.971-7.05,11.491-9.028v20.33Z" transform="translate(-69.076 10013.414)" fill="#ff3463" opacity="0.2"/>
      <path id="Path_1505" data-name="Path 1505" d="M464.918,415h-45.5a5.245,5.245,0,0,0-5.245,5.253V451.77a5.253,5.253,0,0,0,5.245,5.253h45.5a5.261,5.261,0,0,0,5.253-5.253V420.261A5.253,5.253,0,0,0,464.918,415Zm0,5.253v4.465c-2.462,1.994-6.369,5.105-14.724,11.647-1.847,1.453-5.491,4.925-8.035,4.925s-6.189-3.439-8.027-4.925c-8.364-6.566-12.312-9.652-14.733-11.647v-4.465Zm-45.5,31.517V431.465c2.512,1.994,6.065,4.793,11.491,9.028,2.4,1.888,6.566,6.041,11.277,6.016s8.807-4.1,11.277-6.008c5.417-4.243,8.971-7.05,11.491-9.028v20.3Z" transform="translate(-59.397 9994.268)" fill="#ff3463" opacity="0.1"/>
      <path id="Path_1506" data-name="Path 1506" d="M525.339,511.69H479.853a5.261,5.261,0,0,0-5.253,5.253v31.509a5.261,5.261,0,0,0,5.253,5.253h45.52a5.253,5.253,0,0,0,5.245-5.253V516.943a5.253,5.253,0,0,0-5.278-5.253Zm0,5.253v4.465c-2.462,1.995-6.369,5.105-14.724,11.647-1.847,1.453-5.5,4.925-8.035,4.925s-6.189-3.439-8.035-4.925c-8.355-6.542-12.229-9.619-14.692-11.647v-4.465Zm-45.487,31.509V528.146c2.511,1.994,6.065,4.8,11.491,9.028,2.388,1.88,6.566,6.033,11.277,6.008s8.807-4.1,11.277-6.008c5.417-4.243,8.971-7.05,11.491-9.028v20.306Z" transform="translate(-70.228 9976.937)" fill="#ff3463" opacity="0.2"/>
      <path id="Path_1507" data-name="Path 1507" d="M636.918,243.75h-45.5A5.245,5.245,0,0,0,586.17,249v31.509a5.253,5.253,0,0,0,5.245,5.253h45.5a5.261,5.261,0,0,0,5.253-5.253V249A5.253,5.253,0,0,0,636.918,243.75Zm0,5.253v4.465c-2.462,1.994-6.369,5.1-14.725,11.647-1.847,1.453-5.491,4.925-8.035,4.925s-6.189-3.439-8.027-4.925c-8.363-6.566-12.311-9.652-14.774-11.647V249ZM591.4,280.512V260.206c2.512,1.994,6.065,4.793,11.491,9.028,2.4,1.888,6.566,6.041,11.277,6.016s8.807-4.1,11.277-6.016c5.417-4.243,8.971-7.042,11.491-9.028v20.306Z" transform="translate(-90.226 10024.962)" fill="#ff3463" opacity="0.2"/>
      <path id="Path_1508" data-name="Path 1508" d="M636.918,574.81h-45.5a5.253,5.253,0,0,0-5.245,5.253v31.509a5.253,5.253,0,0,0,5.245,5.253h45.5a5.261,5.261,0,0,0,5.253-5.253V580.063A5.261,5.261,0,0,0,636.918,574.81Zm0,5.253v4.465c-2.462,1.994-6.369,5.105-14.724,11.647-1.847,1.453-5.491,4.925-8.035,4.925s-6.188-3.439-8.027-4.925c-8.363-6.566-12.311-9.652-14.774-11.647v-4.465Zm-45.5,31.509V591.266c2.511,1.994,6.065,4.8,11.491,9.028,2.4,1.88,6.566,6.032,11.277,6.008s8.807-4.1,11.277-6.008c5.417-4.243,8.971-7.05,11.491-9.028v20.306Z" transform="translate(-90.226 9965.623)" fill="#ff3463" opacity="0.2"/>
      <path id="Path_1509" data-name="Path 1509" d="M712.17,313.433v31.534a5.253,5.253,0,0,0,5.245,5.253h45.5a5.261,5.261,0,0,0,5.253-5.253V313.433a5.261,5.261,0,0,0-5.253-5.253h-45.5A5.253,5.253,0,0,0,712.17,313.433Zm50.764,0v4.448c-2.462,1.995-6.369,5.105-14.724,11.647-1.847,1.453-5.5,4.925-8.035,4.925s-6.189-3.439-8.027-4.925c-8.364-6.566-12.311-9.652-14.774-11.647v-4.465Zm-45.519,31.534v-20.33c2.512,1.994,6.065,4.8,11.491,9.028,2.462,1.937,6.607,6.033,11.277,6.008s8.889-4.1,11.277-6.008c5.417-4.243,8.971-7.05,11.491-9.028v20.33Z" transform="translate(-112.81 10013.414)" fill="#ff3463" opacity="0.2"/>
      <path id="Path_1510" data-name="Path 1510" d="M762.43,416.183v31.509a5.253,5.253,0,0,0,5.253,5.253h45.511a5.261,5.261,0,0,0,5.253-5.253V416.183a5.261,5.261,0,0,0-5.253-5.253H767.683A5.253,5.253,0,0,0,762.43,416.183Zm50.764,0v4.465c-2.462,1.994-6.369,5.105-14.724,11.647-1.839,1.453-5.491,4.925-8.035,4.925s-6.189-3.439-8.027-4.925c-8.364-6.566-12.27-9.652-14.724-11.647v-4.465Zm-45.511,31.509V427.4c2.462,1.994,6.057,4.8,11.49,9.028,2.462,1.937,6.566,6.033,11.269,6.008s8.889-4.1,11.277-6.008c5.417-4.243,8.979-7.05,11.491-9.028v20.306Z" transform="translate(-121.819 9994.997)" fill="#ff3463" opacity="0.2"/>
      <path id="Path_1511" data-name="Path 1511" d="M705.77,516.943v31.509a5.253,5.253,0,0,0,5.253,5.253h45.511a5.261,5.261,0,0,0,5.253-5.253V516.943a5.261,5.261,0,0,0-5.253-5.253H711.023a5.253,5.253,0,0,0-5.253,5.253Zm50.764,0v4.465c-2.462,1.995-6.369,5.105-14.724,11.647-1.847,1.453-5.491,4.925-8.035,4.925s-6.188-3.439-8.027-4.925c-8.364-6.566-12.312-9.652-14.724-11.647v-4.465Zm-45.511,31.509V528.146c2.5,1.994,6.057,4.8,11.491,9.028,2.462,1.937,6.566,6.033,11.269,6.008s8.889-4.1,11.277-6.008c5.417-4.243,8.971-7.05,11.491-9.028v20.306Z" transform="translate(-111.663 9976.937)" fill="#ff3463" opacity="0.2"/>
      <path id="Path_1512" data-name="Path 1512" d="M530.792,374.109l-.763-.312a19.246,19.246,0,0,0-2.372-2.791s-20.9-7.009-25.156-9.595a17.129,17.129,0,0,0-8.7-2.4l-7.584-1.289s-4.26-.919-6.3-1.642-5.745-2.208-5.745-2.208-4.44-1.847-5.187-2.955-4.44-2.027-4.44-2.027l-7.584-5.745s-6.106-3.693-7.034-7.2-4.44-13.28-16.276-7.009c0,0-5.926-1.642-7.387-3.5s-15.348.181-15.348.181l-4.325-7.387a63.381,63.381,0,0,1-.345-12.467,11.07,11.07,0,0,1,.107-1.19,22,22,0,0,0,6.706-26.4c-.123-.279-.263-.558-.394-.821a7.386,7.386,0,0,0,.714-2.044,4.112,4.112,0,0,1,.082-.542,9.688,9.688,0,0,0,.041-1.264,9.587,9.587,0,0,0-.312-2.364l-.172-.574a9.57,9.57,0,0,0-3-4.408c-1.371-1.116-3.094-1.88-4.1-3.283-1.486-2.117-1.1-5.113-2.462-7.288a6.064,6.064,0,0,0-.443-.583l-.123-.131c-.14-.148-.287-.279-.435-.41l-.09-.074c-2.011-1.641-5.146-1.781-7.764-1.116-3.16.821-6.09,2.462-9.324,2.938-2.569.345-5.163-.14-7.748-.3s-5.351,0-7.477,1.51c-2.618,1.83-3.685,5.2-5.975,7.436s-5.942,3.283-7.945,5.918a7.247,7.247,0,0,0-.977,6.853c.821,2.109,2.618,3.808,3.029,6.033.46,2.462-.821,5.187.041,7.428h0a4.09,4.09,0,0,0,.23.468h0a2.208,2.208,0,0,1,.328,0h.32l.312.057h0a2.08,2.08,0,0,1,.3.082,4.514,4.514,0,0,1,2.741,2.971,12.974,12.974,0,0,1,0,5.45,11.21,11.21,0,0,0,.148,5.425,1.716,1.716,0,0,0,.107.246h0a1.954,1.954,0,0,0,.205.361l.049.066a1.592,1.592,0,0,0,.279.3h0a3.325,3.325,0,0,0,1.584.451h0a2.577,2.577,0,0,1,.558.107c.181.041.246.066.361.1l.172.049c.156.049.3.1.46.164h.041c.164.074.328.14.484.222h0a7.052,7.052,0,0,1,2.232,1.642c.254.279.492.583.739.87h0l.353.369a3.89,3.89,0,0,0,.4.328,3.405,3.405,0,0,0,2.035.533,10.666,10.666,0,0,0,2.709-.525l.074.689c.148,1.313.279,2.61.386,3.874a2.235,2.235,0,0,0,.041.525,26.658,26.658,0,0,0-6.566,8.208l.246.821a2.633,2.633,0,0,0-.246.32v3.685s-19.616,3.5-21.84,5.171-6.287,1.839-6.287,1.839-11.1-.55-11.1,9.775c0,0-.369,4.793-2.585,4.982s-3.332,3.135-3.332,3.135l-11.286,12.172L296.4,379.288s-7.313,6.878-9.184,9.734a2.175,2.175,0,0,0-.435.968s-19.961,22.218,1.888,31.542l.681.279,19.1,14.306,23.8,13.461.714-1.01.378.254,2.864,1.888,3.661-5.9.484.107a5.471,5.471,0,0,1,3.693,2.331c1.092,2.019,7.682,6.3,11.7,6.714l-.148.443-2.249,7.165s-4.44,5.163-3.513,7.009-1.642,15.5-1.642,15.5,4.1,1.642,6.106,2.766a6.014,6.014,0,0,0,1.2.328,9.473,9.473,0,0,1-.115,1.083,6.567,6.567,0,0,1-1.272,3.57c-2.224,2.208-2.035,6.64-2.035,6.64s-1.116,6.451,0,7.19-.5,2.4-.5,2.4,1.724,5.532,0,7.748-5.278,32.092,1.3,46.66c0,0,5.868,12.541,2.717,16.973s-7.149,18.631-6.566,21.208-.862,8.856-.862,8.856,2.4,13.132.739,15.857-6.106,44.822-.739,54.991c0,0-5.368,6.829-8.142,6.829s2.4,10.67,4.621,12.73,3.217,11.983,3.217,11.983l.32.148c.09.394.2.821.3,1.239,1.174,4.572,3.185,10.85,5.417,10.974,3.513.181,17.022-.739,17.572-4.063s-.189-8.856,2.585-10.514,12.4-6.451,6.484-17.884a13.491,13.491,0,0,0-2.175-.066h-.049l1.108-24.623,4.44-35.966s3.89-12.361,4.449-14.019-.927-4.424-.927-4.424l1.042-9.964s-.673-11.064,1.543-12.541.928-7,.928-7a61.528,61.528,0,0,0,2.035-9.964,42.9,42.9,0,0,1,1.3-7.567s.739-3.283,2.036-7.74a54.994,54.994,0,0,0,1.641-9.964s4.99-6.271,4.44-11.253.369-12.911,2.216-11.253,2.963,7.387,2.963,7.387l2.774,15.5s4.81,15.307,4.252,17.523,1.486,10.325,1.486,10.325-.369,9.406.739,11.622,0,6.64,0,6.64,3.7,9.406,3.143,11.253.057,12.722.057,12.722l1.059,8.117s1.108,6.459,0,9.964,4.842,49.246,6.492,52.939-.944,11.244-.944,11.244-2.036,6.09,6.656,10.67l2.594,10.514.189.057a7.676,7.676,0,0,0,.115,1.133c.731,4.859,4.416,9.849,18.016,5.639,0,0,4.1-1.428,5.179-4.4s9.619-6.115,9.619-6.115,7.485-8.544.927-14.569A6.09,6.09,0,0,0,463,702.258a13.026,13.026,0,0,1,1.149-6.96c2.035-4.235-2.036-13.28-3.324-14.774s1.641-8.3,1.641-8.3a45.085,45.085,0,0,0-2.036-5.532c-.739-1.3-1.477-34.866-1.477-34.866s-1.477-18.443-5.368-26.19c0,0,.927-5.532,1.3-7.929s-.369-42.236-.369-42.236,7.953-13.132,2.4-32.65a54.9,54.9,0,0,1,.739-8.487c.739-4.055-1.108-11.253-1.108-11.253s2.036-10.145-1.847-13.132c-1.642-1.215-2.331-4-2.626-6.853,0-.361-.057-.722-.082-1.075,5.187-1.371,8.979-2.889,9.365-4.424,1.3-5.163-7.215-29.547-7.215-29.547l-10.268-29.827s3.89-13.649,2.224-17.893,3.7-14.946,3.7-14.946-2.413-7-.747-8.848a1.954,1.954,0,0,0,.3-.517l3.964,2.914s6.665,1.847,8.273,3.685,8.749,1.3,8.749,1.3a64.667,64.667,0,0,1,11.491.689,6.565,6.565,0,0,1,3.283,1.338c2.224,2.4,9.627,3.283,11.1,2.216a4.278,4.278,0,0,1,2.864-.254,25.342,25.342,0,0,1,3.981.993l24.623,3.135a20.1,20.1,0,0,0,1.592-1.469l.32.246c19.92,14.5,20.667.3,20.667.3s7.026,1.839,7.026-2.462C557.261,385.231,538.8,377.36,530.792,374.109Zm-183.03,58.881-.525-.041.353-.566-1.962-.919-.419-.2.739-1.059L326.5,418.578a7.148,7.148,0,0,1-2.963-3.283c-1.108-2.4-5.918-2.947-5.918-2.947l-5.458-4.8s6.386-7.748,8.208-7.748,5-2.29,5-2.29l7.805-5.269.148.189s6.845,8.478,7.387,9.956,6.656,7.929,6.656,7.929,6.484,8.117,9.439,17.154a24.1,24.1,0,0,0,3.726,4.063c-5.072.558-11.13,1.642-11.13,1.642Z" transform="translate(-35.069 10023.322)" fill="url(#linear-gradient)"/>
      <path id="Path_1513" data-name="Path 1513" d="M428.73,316.646c-.936,11.573,2.421,23.416,2.421,23.416s-35.539,2.2-32.978-2.561a6.9,6.9,0,0,0,.583-2.462,52.179,52.179,0,0,0-.181-8.807c-.107-1.256-.238-2.544-.378-3.858-.476-4.293-1.108-8.708-1.642-12.18-.09-.534-.172-1.051-.246-1.535-.5-3.061-.87-5.081-.87-5.081s27.323-8.035,35.588-5.294c2.331.771,3.152,2.388,1.42,5.294a29.1,29.1,0,0,0-3.587,11.852A5.777,5.777,0,0,0,428.73,316.646Z" transform="translate(-56.04 10015.289)" fill="#be6f72"/>
      <path id="Path_1514" data-name="Path 1514" d="M611.644,417.615c0,4.3-6.96,2.462-6.96,2.462s-.739,14.109-20.462-.3c-.5-.369-1.018-.755-1.551-1.165l-.821-15.939v-.919s1.4.55,3.587,1.436C593.365,406.428,611.644,414.267,611.644,417.615Z" transform="translate(-89.452 9996.643)" fill="#be6f72"/>
      <path id="Path_1515" data-name="Path 1515" d="M391.417,805.663c-2.75,1.642-2.011,7.149-2.561,10.44s-13.953,4.219-17.408,4.038c-2.208-.123-4.2-6.361-5.36-10.9-.665-2.61-1.059-4.662-1.059-4.662s22.161-8.807,24.007-13.206c1.165-2.807,4.44-3.447,6.64-3.537a13.8,13.8,0,0,1,2.15.057C403.7,799.253,394.159,804.013,391.417,805.663Z" transform="translate(-50.589 9927.443)" fill="#464a5f"/>
      <path id="Path_1516" data-name="Path 1516" d="M504.556,816.262s-8.421,3.111-9.521,6.074-5.13,4.375-5.13,4.375c-13.469,4.194-17.113-.78-17.835-5.606a17.878,17.878,0,0,1,.427-6.673l19.789-8.273s2.684-4.153,6.3-5.68a6.016,6.016,0,0,1,6.886,1.313C511.967,807.775,504.556,816.262,504.556,816.262Z" transform="translate(-69.75 9925.274)" fill="#464a5f"/>
      <path id="Path_1517" data-name="Path 1517" d="M395.683,787.84l-.419,9.225c-5.852,4.022-6.566,11.9-6.566,11.9a28.932,28.932,0,0,1-22.579.279c-.665-2.61-1.059-4.662-1.059-4.662s22.161-8.807,24.007-13.206C390.208,788.57,393.483,787.971,395.683,787.84Z" transform="translate(-50.594 9927.439)" opacity="0.1"/>
      <path id="Path_1518" data-name="Path 1518" d="M498.876,803.013c-6.96,22.243-24.3,18.828-26.806,18.213a17.877,17.877,0,0,1,.427-6.673l19.789-8.273s2.684-4.153,6.3-5.68A11.27,11.27,0,0,0,498.876,803.013Z" transform="translate(-69.75 9925.152)" opacity="0.1"/>
      <path id="Path_1519" data-name="Path 1519" d="M478.868,741.709a12.935,12.935,0,0,0-.919,8.249c-7.51,24-27.085,18.131-27.085,18.131l-2.569-10.44c-8.61-4.58-6.566-10.621-6.566-10.621s2.569-7.518.936-11.179-7.535-49.1-6.435-52.578,0-9.89,0-9.89l-1.042-8.068s-.607-10.8-.057-12.64-3.111-11.171-3.111-11.171,1.1-4.4,0-6.566-.731-11.54-.731-11.54-2.019-8.06-1.469-10.26-4.21-17.4-4.21-17.4l-2.75-15.389s-1.1-5.68-2.938-7.329-2.741,6.23-2.191,11.179-4.424,11.138-4.424,11.138a54.314,54.314,0,0,1-1.642,9.9c-1.28,4.391-2.011,7.69-2.011,7.69a42.585,42.585,0,0,0-1.289,7.51,61.712,61.712,0,0,1-2.011,9.9s1.28,5.491-.919,6.952-1.527,12.459-1.527,12.459l-1.034,9.9s1.461,2.749.911,4.391-4.391,13.953-4.391,13.953l-4.432,35.7L393.493,746.3c-5.852,4.022-6.566,11.9-6.566,11.9a28.726,28.726,0,0,1-23.2,0s-.985-9.849-3.176-11.9-7.329-12.64-4.58-12.64,8.06-6.788,8.06-6.788c-5.31-10.071-.919-51.839.731-54.589s-.731-15.759-.731-15.759,1.461-6.23.862-8.79,3.349-16.67,6.468-21.069-2.684-16.858-2.684-16.858c-6.525-14.47-3-44.149-1.289-46.348s0-7.691,0-7.691,1.592-1.641.484-2.38,0-7.141,0-7.141-.189-4.4,2.011-6.566a6.435,6.435,0,0,0,1.256-3.546,42.03,42.03,0,0,0,0-7.994L396.415,513.3l31.69-2.569,38.838,12.09a46.1,46.1,0,0,0,0,8.208c.287,2.832,1,5.6,2.594,6.8,3.849,2.938,1.83,13.009,1.83,13.009s1.83,7.149,1.1,11.179a54.706,54.706,0,0,0-.73,8.429c5.491,19.419-2.388,32.428-2.388,32.428s.739,39.569.369,41.949-1.28,7.871-1.28,7.871c3.849,7.7,5.31,26.018,5.31,26.018s.731,33.339,1.469,34.628a44.841,44.841,0,0,1,2.011,5.5s-2.93,6.771-1.642,8.208S480.879,737.482,478.868,741.709Z" transform="translate(-48.823 9977.108)" fill="#5f5d7e"/>
      <path id="Path_1520" data-name="Path 1520" d="M432.4,303.619a29.1,29.1,0,0,0-3.587,11.852c-.049.394-.082.821-.115,1.182-3.677,2.807-9.348,1.387-14.339,1.387-1.756,0-1.338-2.585-2.979-2.971-5.885-1.42-11.909.263-14.872-4.834-.09-.533-.172-1.051-.246-1.535-.5-3.061-.87-5.081-.87-5.081s27.323-8.035,35.588-5.294C433.309,299.1,434.13,300.714,432.4,303.619Z" transform="translate(-56.031 10015.282)" opacity="0.1"/>
      <path id="Path_1521" data-name="Path 1521" d="M436.922,293.435a21.9,21.9,0,0,1-21.9,21.9,22.478,22.478,0,0,1-5.122-.6,21.906,21.906,0,1,1,27.019-21.3Z" transform="translate(-55.621 10019.983)" fill="#be6f72"/>
      <path id="Path_1522" data-name="Path 1522" d="M426.734,335.091c-8.47-2.6-20.117,1.773-27.323,5.22a52.173,52.173,0,0,0-.18-8.807c4.842-4.046,12.484-7.034,23.154-1.642.977.5,1.978,1.067,3.012,1.7Z" transform="translate(-56.719 10010.051)" opacity="0.1"/>
      <path id="Path_1523" data-name="Path 1523" d="M425.339,335.76c-11.359-3.5-28.439,5.581-32.83,8.109l-.821-2.791-.238-.78s9.332-20.018,29.6-9.767c.977.5,1.978,1.067,3.012,1.7Z" transform="translate(-55.324 10009.931)" fill="#ff3463"/>
      <path id="Path_1524" data-name="Path 1524" d="M470.416,531c-12.155,3.234-32.157,5.655-33.315,5.524-1.642-.181-16.309,3.119-16.309,3.119.55-1.838-4.391-21.619-4.391-21.619l-3.488,22.719s-31.8-3.283-38.313-4.646a42.037,42.037,0,0,0,0-7.994l25.279-14.839,31.69-2.569,38.839,12.09A46.092,46.092,0,0,0,470.416,531Z" transform="translate(-52.304 9977.116)" opacity="0.1"/>
      <path id="Path_1525" data-name="Path 1525" d="M470.4,493.216c-1.256,5.113-40.857,10.038-42.5,9.89s-16.309,3.119-16.309,3.119c.55-1.838-4.391-21.619-4.391-21.619l-3.488,22.751s-37.369-3.849-39.4-4.925-6.049-2.741-6.049-2.741,2.561-13.559,1.642-15.389,3.48-6.968,3.48-6.968l2.233-7.108,6.738-21.471a10.347,10.347,0,0,1-1.133-.747,22.886,22.886,0,0,1-4.358-4.563c-2.905-9.037-9.348-17.1-9.348-17.1s-6.041-6.41-6.566-7.879-7.329-9.89-7.329-9.89l-20.33-26.2,11.171-12.09s1.1-2.93,3.283-3.111,2.569-4.925,2.569-4.925c0-10.259,10.99-9.71,10.99-9.71s4.03-.181,6.221-1.83,21.627-5.138,21.627-5.138v-3.111c16.3-21.619,36.934-7.567,36.934-7.567l4.293,7.387s13.731-2.011,15.192-.181,7.329,3.472,7.329,3.472c11.729-6.221,15.2,3.488,16.12,6.968S466,359.687,466,359.687s-6.238,31.328-7.888,33.159.739,8.8.739,8.8-5.294,10.6-3.652,14.807-2.2,17.778-2.2,17.778l10.259,29.679S471.685,488.087,470.4,493.216Z" transform="translate(-43.109 10009.429)" fill="#464a5f"/>
      <path id="Path_1526" data-name="Path 1526" d="M432.607,343.595c-10.251-15.759-41.227,3.283-41.227,3.283v-3.111c16.3-21.619,36.934-7.567,36.934-7.567Z" transform="translate(-55.312 10009.196)" opacity="0.1"/>
      <path id="Path_1527" data-name="Path 1527" d="M425.334,336.137c-11.359-3.5-28.439,5.581-32.83,8.109l-1.083.632v-3.111l.238-.312c10.161-13.223,21.947-12.755,29.359-10.547.977.5,1.978,1.067,3.012,1.7Z" transform="translate(-55.319 10009.554)" opacity="0.1"/>
      <path id="Path_1528" data-name="Path 1528" d="M432.607,342.255c-10.251-15.75-41.227,3.283-41.227,3.283v-3.111c16.3-21.619,36.934-7.567,36.934-7.567Z" transform="translate(-55.312 10009.437)" fill="#464a5f"/>
      <path id="Path_1529" data-name="Path 1529" d="M431.021,489.26l-5.491,23.8,1.051,4.309S432.482,492.559,431.021,489.26Z" transform="translate(-61.433 9980.957)" opacity="0.1"/>
      <path id="Path_1530" data-name="Path 1530" d="M476.138,441.05s-2.75,22.161-20.708,28.579C455.43,469.629,470.269,456.259,476.138,441.05Z" transform="translate(-66.792 9989.599)" opacity="0.1"/>
      <path id="Path_1531" data-name="Path 1531" d="M390,463.756s21.8-9.349,21.8-5.5S390,463.756,390,463.756Z" transform="translate(-55.065 9986.681)" opacity="0.1"/>
      <path id="Path_1532" data-name="Path 1532" d="M446.73,440.312s15.209-10.809,18.5-8.06S446.73,440.312,446.73,440.312Z" transform="translate(-65.233 9991.256)" opacity="0.1"/>
      <path id="Path_1533" data-name="Path 1533" d="M584.222,419.784c-.5-.369-1.018-.755-1.551-1.165l-.821-15.939v-.919s1.4.55,3.587,1.436C587.948,406.923,590.575,413.448,584.222,419.784Z" transform="translate(-89.451 9996.641)" opacity="0.1"/>
      <path id="Path_1534" data-name="Path 1534" d="M564.83,414.279l-24.368-3.111a25.522,25.522,0,0,0-3.94-.985,4.312,4.312,0,0,0-2.84.246c-1.461,1.1-8.79.189-10.99-2.2a6.565,6.565,0,0,0-3.283-1.33,64.875,64.875,0,0,0-11.384-.681s-7.067.55-8.667-1.28-8.208-3.661-8.208-3.661l-6.96-5.138,4.391-31.87,6.238,1.461,7.5,5.68s3.669.919,4.4,2.019,5.13,2.93,5.13,2.93,3.661,1.461,5.68,2.2,6.229,1.641,6.229,1.641l7.51,1.289a16.915,16.915,0,0,1,8.618,2.38c4.2,2.569,24.91,9.529,24.91,9.529S576.78,404.389,564.83,414.279Z" transform="translate(-71.947 10003.36)" fill="#464a5f"/>
      <path id="Path_1535" data-name="Path 1535" d="M547.472,409.819a11.351,11.351,0,0,1-3.283,4.67,4.311,4.311,0,0,0-2.84.246c-1.461,1.1-8.79.189-10.99-2.192a6.5,6.5,0,0,0-3.283-1.338c-.566-4.1-2.06-20.888,12.09-19.8C555.211,392.64,547.472,409.819,547.472,409.819Z" transform="translate(-79.573 9998.505)" opacity="0.1"/>
      <path id="Path_1536" data-name="Path 1536" d="M547.472,410.489a11.351,11.351,0,0,1-3.283,4.67,4.311,4.311,0,0,0-2.84.246c-1.461,1.1-8.79.189-10.99-2.2a6.567,6.567,0,0,0-3.283-1.33c-.566-4.063-2.06-20.888,12.09-19.8C555.211,393.31,547.472,410.489,547.472,410.489Z" transform="translate(-79.573 9998.385)" fill="#5f5d7e"/>
      <ellipse id="Ellipse_307" data-name="Ellipse 307" cx="0.821" cy="1.371" rx="0.821" ry="1.371" transform="translate(488.278 10405.508)" fill="#ff3463"/>
      <ellipse id="Ellipse_308" data-name="Ellipse 308" cx="0.821" cy="1.371" rx="0.821" ry="1.371" transform="translate(489.928 10406.059)" fill="#ff3463"/>
      <ellipse id="Ellipse_309" data-name="Ellipse 309" cx="0.821" cy="1.371" rx="0.821" ry="1.371" transform="translate(491.578 10406.575)" fill="#ff3463"/>
      <path id="Path_1537" data-name="Path 1537" d="M506.912,375.85s1.371.96-1.165,3.915S506.912,375.85,506.912,375.85Z" transform="translate(-75.652 10001.284)" opacity="0.1"/>
      <path id="Path_1538" data-name="Path 1538" d="M523.129,384.64s3.71,13.526.55,15.865S523.129,384.64,523.129,384.64Z" transform="translate(-78.745 9999.709)" opacity="0.1"/>
      <circle id="Ellipse_310" data-name="Ellipse 310" cx="1.371" cy="1.371" r="1.371" transform="translate(336.528 10516.845)" fill="#ff3463"/>
      <circle id="Ellipse_311" data-name="Ellipse 311" cx="1.371" cy="1.371" r="1.371" transform="translate(401.975 10515.384)" fill="#ff3463"/>
      <path id="Path_1539" data-name="Path 1539" d="M382.89,587s13.953,12.82,32.248,0C415.138,587,394.857,591.1,382.89,587Z" transform="translate(-53.79 9963.438)" opacity="0.1"/>
      <path id="Path_1540" data-name="Path 1540" d="M445.61,590.51s23.638,1.469,29.5-3.841S445.61,590.51,445.61,590.51Z" transform="translate(-65.032 9963.795)" opacity="0.1"/>
      <path id="Path_1541" data-name="Path 1541" d="M376.64,627.87c.369.919,8.249,24.188,19.419,24.369Z" transform="translate(-52.67 9956.113)" opacity="0.1"/>
      <path id="Path_1542" data-name="Path 1542" d="M487.808,599.08s-10.079,43.435-21.438,49.1Z" transform="translate(-68.753 9961.273)" opacity="0.1"/>
      <path id="Path_1543" data-name="Path 1543" d="M361,786.8s21.25,4.391,18.689,6.41-15.406,1.461-15.406,1.461Z" transform="translate(-49.867 9927.626)" opacity="0.1"/>
      <path id="Path_1544" data-name="Path 1544" d="M484.9,775.845s7.51,8.61,10.071,3.849S484.9,775.845,484.9,775.845Z" transform="translate(-72.074 9929.603)" opacity="0.1"/>
      <path id="Path_1545" data-name="Path 1545" d="M468.011,797.864c1.641-.181,8.249.919,13.559,0s-12.311-2.922-14.478.369S468.011,797.864,468.011,797.864Z" transform="translate(-68.744 9925.903)" opacity="0.1"/>
      <path id="Path_1546" data-name="Path 1546" d="M435.03,284.528a5.252,5.252,0,0,1-.821,1.051c-.73.722-1.642,1.223-2.331,2-1.4,1.6-1.272,3.825-1.33,6.033a12.72,12.72,0,0,1-.271,2.643,7.387,7.387,0,0,1-5.253,5.359,10.744,10.744,0,0,0-4.506-4.6,1.9,1.9,0,0,0-1.133-.312,1.962,1.962,0,0,0-1.133.821,14.363,14.363,0,0,0-3.143,7.5,14.679,14.679,0,0,0,.1,4.022c.164.919,1.231,2.914.821,3.767-.64,1.28-3.833,1.642-6.139,1.921-.821.09-1.486.172-1.921.271q-4.867,1.083-9.636,2.544l-.591.164c-.542-4.925-1.313-10.071-1.9-13.715a21.9,21.9,0,1,1,39.183-19.46Z" transform="translate(-55.617 10019.994)" opacity="0.1"/>
      <path id="Path_1547" data-name="Path 1547" d="M414.273,294.338a1.937,1.937,0,0,1,1.133-.821,1.888,1.888,0,0,1,1.133.3,10.858,10.858,0,0,1,4.514,4.6,7.387,7.387,0,0,0,5.228-5.36c.681-2.914-.361-6.41,1.6-8.684.665-.771,1.6-1.272,2.331-1.994a6.689,6.689,0,0,0,1.756-3.89,9.554,9.554,0,0,0-3.382-8.478c-1.363-1.116-3.061-1.871-4.1-3.283-1.477-2.1-1.083-5.081-2.462-7.239-1.748-2.717-5.639-3.1-8.774-2.3s-6.024,2.462-9.225,2.914c-2.544.345-5.113-.131-7.674-.3s-5.3,0-7.387,1.494c-2.594,1.822-3.644,5.171-5.909,7.387s-5.893,3.283-7.879,5.877a7.231,7.231,0,0,0-.96,6.812c.821,2.093,2.594,3.784,3,5.992.492,2.618-1.059,5.573.279,7.879,1.806-.213,3.439,1.346,3.964,3.086a12.917,12.917,0,0,1,0,5.409,11.178,11.178,0,0,0,.148,5.392,2.193,2.193,0,0,0,.632.96,3.194,3.194,0,0,0,1.568.443,7.157,7.157,0,0,1,4.268,2.3,8.881,8.881,0,0,0,1.486,1.576c1.371.936,3.217.46,4.81,0q4.768-1.453,9.636-2.544c1.7-.386,7.206-.476,8.068-2.191.427-.821-.64-2.848-.821-3.767a14.5,14.5,0,0,1,3.037-11.491Z" transform="translate(-52.153 10022.618)" fill="#464a5f"/>
      <path id="Path_1548" data-name="Path 1548" d="M378.093,495.254c-.648.689-1.806.821-3.193.517l6.738-21.471a10.346,10.346,0,0,1-1.133-.747c2.979-.32,5.589-.46,6.385-.074C389.017,474.513,380.637,492.578,378.093,495.254Z" transform="translate(-52.358 9983.827)" opacity="0.1"/>
      <path id="Path_1549" data-name="Path 1549" d="M373.8,494.58c-2.569,2.684-12.714-3.5-14.06-6.065a5.414,5.414,0,0,0-3.652-2.315,11.212,11.212,0,0,0-2.117-.287l7.149-11.753,2.3.2,1.683.148s15.389-2.75,17.523-1.715S376.336,491.9,373.8,494.58Z" transform="translate(-48.607 9983.951)" fill="#be6f72"/>
      <path id="Path_1550" data-name="Path 1550" d="M363.377,474.727l-7.329,11.844a11.179,11.179,0,0,0-2.118-.287l7.149-11.753Z" transform="translate(-48.599 9983.598)" opacity="0.1"/>
      <path id="Path_1551" data-name="Path 1551" d="M215.454,424.3l-11.269,18.2-2.832-1.88-1.633-1.075,10.03-17.925,3.759,1.756Z" transform="translate(99.151 10033.421)" fill="#ff3463"/>
      <path id="Path_1552" data-name="Path 1552" d="M213.509,423.376l-12.155,17.244-1.633-1.075,10.03-17.925Z" transform="translate(99.151 10033.421)" opacity="0.1"/>
      <path id="Path_1553" data-name="Path 1553" d="M348.646,457.039l-13.559,19.239-23.63-13.37L292.58,448.7l-.673-.279c-21.635-9.242-1.9-31.312-1.9-31.312a2.215,2.215,0,0,1,.427-.96c1.855-2.84,9.1-9.669,9.1-9.669l16.309-13.19,6.566-2.011,15.209,26.929-9.34,6.328s-3.119,2.282-4.925,2.282-8.158,7.691-8.158,7.691l5.409,4.769s4.76.55,5.86,2.922a7.091,7.091,0,0,0,2.938,3.283Z" transform="translate(-35.666 9998.519)" fill="#464a5f"/>
      <path id="Path_1554" data-name="Path 1554" d="M309.23,433.109s14.109-2.356,14.839-1.362S309.23,433.109,309.23,433.109Z" transform="translate(-40.587 9991.31)" opacity="0.1"/>
      <path id="Path_1555" data-name="Path 1555" d="M309.23,442.17a22.038,22.038,0,0,0,5.868.73C318.579,442.9,309.23,442.17,309.23,442.17Z" transform="translate(-40.587 9989.397)" opacity="0.1"/>
      <path id="Path_1556" data-name="Path 1556" d="M292.587,453.826c-21.635-9.242-1.9-31.312-1.9-31.312a2.215,2.215,0,0,1,.427-.96c4-.665,10.071.927,10.982,16.325C302.641,447.087,298.177,451.659,292.587,453.826Z" transform="translate(-35.788 9993.114)" opacity="0.1"/>
      <path id="Path_1557" data-name="Path 1557" d="M291.917,453.826c-21.635-9.242-1.9-31.312-1.9-31.312a2.216,2.216,0,0,1,.427-.96c4-.665,10.071.927,10.982,16.325C301.971,447.087,297.507,451.659,291.917,453.826Z" transform="translate(-35.668 9993.114)" fill="#5f5d7e"/>
      <g id="Group_1973" data-name="Group 1973" transform="translate(324.93 10280.153)" opacity="0.1">
        <path id="Path_1558" data-name="Path 1558" d="M377.81,302.46a3.937,3.937,0,0,0,.394.969,2.939,2.939,0,0,1,1.256.131A4.006,4.006,0,0,0,377.81,302.46Z" transform="translate(-377.81 -265.715)"/>
        <path id="Path_1559" data-name="Path 1559" d="M383.843,320.918l-.443-.057a1.82,1.82,0,0,0,.525.714,3.194,3.194,0,0,0,1.568.443,7.01,7.01,0,0,1,2.06.648A7.182,7.182,0,0,0,383.843,320.918Z" transform="translate(-378.812 -269.013)"/>
        <path id="Path_1560" data-name="Path 1560" d="M438.608,270.19c-1.362-1.116-3.061-1.871-4.1-3.283-1.477-2.1-1.083-5.08-2.462-7.239a5.343,5.343,0,0,0-2.372-1.978,5.033,5.033,0,0,1,.722.878c1.4,2.159,1,5.138,2.462,7.239,1.018,1.436,2.717,2.191,4.1,3.283a9.554,9.554,0,0,1,3.382,8.479,6.689,6.689,0,0,1-1.756,3.89c-.731.722-1.642,1.223-2.331,1.995-1.953,2.273-.919,5.745-1.6,8.684a7.386,7.386,0,0,1-4.416,5.089,11.127,11.127,0,0,1,.821,1.371,7.387,7.387,0,0,0,5.228-5.36c.681-2.914-.361-6.41,1.6-8.684.665-.771,1.6-1.272,2.331-1.994a6.688,6.688,0,0,0,1.756-3.89A9.554,9.554,0,0,0,438.608,270.19Z" transform="translate(-387.105 -257.69)"/>
        <path id="Path_1561" data-name="Path 1561" d="M418.17,300.513a1.887,1.887,0,0,0-1.133-.3,1.937,1.937,0,0,0-1.133.821,14.5,14.5,0,0,0-3.037,11.491c.156.927,1.223,2.922.821,3.767-.862,1.715-6.369,1.806-8.068,2.191q-4.867,1.083-9.636,2.544a7.46,7.46,0,0,1-3.915.435,4.014,4.014,0,0,0,.755.689c1.371.936,3.217.46,4.81,0q4.768-1.453,9.636-2.544c1.7-.386,7.206-.476,8.068-2.191.427-.821-.64-2.848-.821-3.767a14.5,14.5,0,0,1,3.037-11.491,1.937,1.937,0,0,1,1.133-.821,1.847,1.847,0,0,1,1.124.3A10.97,10.97,0,0,0,418.17,300.513Z" transform="translate(-380.366 -265.311)"/>
      </g>
      <ellipse id="Ellipse_312" data-name="Ellipse 312" cx="27.43" cy="4.637" rx="27.43" ry="4.637" transform="translate(178.597 10719.31)" fill="#ff3463" opacity="0.1"/>
      <path id="Path_1562" data-name="Path 1562" d="M236.814,727.05s5.039,6.566-2.323,16.53-13.436,18.344-10.982,24.541c0,0,11.113-18.467,20.15-18.73S246.794,738.155,236.814,727.05Z" transform="translate(-25.124 9938.336)" fill="#ff3463"/>
      <path id="Path_1563" data-name="Path 1563" d="M236.877,727.05a8.211,8.211,0,0,1,1.034,2.068c8.815,10.366,13.518,20.035,5.039,20.273-7.9.23-17.375,14.347-19.641,17.917.074.271.164.542.263.821,0,0,11.113-18.467,20.15-18.73S246.858,738.155,236.877,727.05Z" transform="translate(-25.187 9938.336)" opacity="0.1"/>
      <path id="Path_1564" data-name="Path 1564" d="M251,736.956c0,2.315-.263,4.194-.583,4.194s-.583-1.879-.583-4.194.328-1.231.648-1.231S251,734.641,251,736.956Z" transform="translate(-29.941 9936.826)" fill="#ffd037"/>
      <path id="Path_1565" data-name="Path 1565" d="M254.292,740.3c-2.035,1.108-3.808,1.781-3.964,1.5s1.379-1.412,3.414-2.52,1.231-.3,1.387,0S256.327,739.2,254.292,740.3Z" transform="translate(-30.028 9936.244)" fill="#ffd037"/>
      <path id="Path_1570" data-name="Path 1570" d="M198,774.339s14.084-.435,18.328-3.455,21.66-6.632,22.719-1.781,21.159,24.1,5.261,24.229-36.934-2.462-41.178-5.056S198,774.339,198,774.339Z" transform="translate(-20.651 9931.224)" fill="#5f5d7e"/>
      <path id="Path_1571" data-name="Path 1571" d="M244.568,793.346c-15.9.123-36.934-2.462-41.178-5.064-3.226-1.962-4.514-9.028-4.925-12.262h-.476s.895,11.359,5.13,13.953,25.279,5.187,41.178,5.056c4.588,0,6.172-1.641,6.09-4.1C249.706,792.419,247.983,793.314,244.568,793.346Z" transform="translate(-20.649 9929.559)" opacity="0.2"/>
      <ellipse id="Ellipse_313" data-name="Ellipse 313" cx="28.891" cy="4.884" rx="28.891" ry="4.884" transform="translate(684.875 10738.475)" fill="#ff3463" opacity="0.1"/>
      <path id="Path_1572" data-name="Path 1572" d="M827.93,792.465s16.473-.509,21.438-4.046,25.353-7.756,26.584-2.085,24.762,28.21,6.156,28.357-43.221-2.9-48.179-5.918S827.93,792.465,827.93,792.465Z" transform="translate(-133.559 9928.207)" fill="#5f5d7e"/>
      <path id="Path_1573" data-name="Path 1573" d="M882.452,814.653c-18.607.156-43.229-2.9-48.187-5.918-3.776-2.3-5.278-10.547-5.746-14.355h-.55s1.042,13.288,6,16.308,29.547,6.065,48.179,5.918c5.376,0,7.231-1.953,7.124-4.785C888.493,813.553,886.449,814.587,882.452,814.653Z" transform="translate(-133.566 9926.268)" opacity="0.2"/>
      <ellipse id="Ellipse_314" data-name="Ellipse 314" cx="31.468" cy="5.319" rx="31.468" ry="5.319" transform="translate(788.504 10756.351)" fill="#ff3463"/>
      <path id="Path_1574" data-name="Path 1574" d="M990.449,830.594a9.217,9.217,0,0,0,3-4.531c.386-1.8-.378-3.948-2.1-4.613-1.921-.73-3.981.6-5.54,1.953s-3.349,2.881-5.392,2.594a8.208,8.208,0,0,0,2.536-7.674,3.159,3.159,0,0,0-.706-1.56c-1.067-1.141-3-.657-4.284.246-4.1,2.864-5.2,8.388-5.228,13.37-.41-1.8-.066-3.669-.074-5.507s-.517-3.882-2.068-4.875a6.271,6.271,0,0,0-3.152-.739c-1.83-.066-3.866.115-5.122,1.453-1.551,1.642-1.149,4.457.205,6.287s3.406,2.971,5.294,4.235a11.793,11.793,0,0,1,3.784,3.612,3.276,3.276,0,0,1,.279.648h11.491A31.759,31.759,0,0,0,990.449,830.594Z" transform="translate(-157.468 9922.375)" fill="#ff3463"/>
    </g>
  </g>
</svg>
