<svg id="github" xmlns="http://www.w3.org/2000/svg" width="177.041" height="177.041" viewBox="0 0 177.041 177.041">
  <path id="Path_3" data-name="Path 3" d="M177.041,88.835c0,41.48-29.081,76.219-67.774,85.552l-10.582-33.6H78.355l-10.236,33.6C29.427,165.054,0,130.315,0,88.835,0,40.2,39.869,0,88.52,0s88.521,40.2,88.521,88.835Zm0,0" transform="translate(0 0)" fill="#384949"/>
  <path id="Path_4" data-name="Path 4" d="M346.6,88.835c0,41.48-29.765,76.219-69.368,85.552l-10.83-33.6H256V0c49.8,0,90.6,40.2,90.6,88.835Zm0,0" transform="translate(-169.562 0)" fill="#293939"/>
  <path id="Path_5" data-name="Path 5" d="M127.077,376.939a22.235,22.235,0,0,1-6.31-.912c-5.354-1.582-9.705-5.148-12.935-10.587a16.122,16.122,0,0,0-4.815-5.418,7.212,7.212,0,0,0-4.7-1.544L97.386,347.9a17.513,17.513,0,0,1,11.536,3.3,26.643,26.643,0,0,1,8.041,8.818c1.878,3.157,4.038,5.008,6.813,5.828,3.116.917,6.35.533,10.488-1.229l4.179,9.756A28.823,28.823,0,0,1,127.077,376.939Zm0,0" transform="translate(-63.944 -228.104)" fill="#ececf1"/>
  <path id="Path_6" data-name="Path 6" d="M205.04,170.037c-3.574,9.874-12.556,22.4-35.318,25.907,2.96,4.565,6.533,7.008,6.43,16.564v34.4a81.01,81.01,0,0,1-20.415,2.654,78.359,78.359,0,0,1-20.075-2.654V212.082c0-9.449,3.437-12.1,6.09-16.138-22.762-3.5-31.744-16.033-35.318-25.906-4.8-13.167-2.245-29.518,6.126-39.923a1.4,1.4,0,0,0,.408-1.062c-3.88-12.1.816-22.19,1.021-23.252,4.388,1.38,5.1-1.381,19.292,7.644l2.449,1.487c1.021.636.715.211,1.736.211a66.74,66.74,0,0,1,18.271-2.654,70.091,70.091,0,0,1,18.577,2.654l.715.107a1.693,1.693,0,0,0,.715-.318c17.658-11.15,17.046-7.539,21.842-9.131.1,1.062,4.8,11.253.92,23.252-.51,1.593,15.311,16.669,6.534,40.984Zm0,0" transform="translate(-67.212 -72.521)" fill="#ececf1"/>
  <path id="Path_7" data-name="Path 7" d="M307.283,170.037c-3.718,9.874-13.06,22.4-36.737,25.907,3.079,4.565,6.8,7.008,6.689,16.564v34.4A87.472,87.472,0,0,1,256,249.562V112.489a75.665,75.665,0,0,1,19.325,2.654l.742.107a1.793,1.793,0,0,0,.744-.318c18.368-11.15,17.73-7.539,22.721-9.131.107,1.062,4.991,11.254.955,23.252C299.956,130.646,316.413,145.722,307.283,170.037Zm0,0" transform="translate(-168.364 -72.521)" fill="#e2e2e7"/>
</svg>
