<svg id="gmail_color_ic" xmlns="http://www.w3.org/2000/svg" width="236.048" height="177.043" viewBox="0 0 236.048 177.043">
  <rect id="Rectangle_1" data-name="Rectangle 1" width="177.767" height="177.043" transform="translate(29.143 0)" fill="#eceff1"/>
  <path id="Path_1" data-name="Path 1" d="M256,222.986l96.59,76.277V148.672Z" transform="translate(-145.68 -122.219)" fill="#cfd8dc"/>
  <path id="Path_2" data-name="Path 2" d="M213.918,64h-7.375l-88.521,69.9L29.505,64H22.13A22.14,22.14,0,0,0,0,86.13V218.912a22.141,22.141,0,0,0,22.13,22.13h7.375V103.035l88.521,68.086,88.521-68.1V241.043h7.37a22.14,22.14,0,0,0,22.13-22.13V86.13A22.14,22.14,0,0,0,213.918,64Z" transform="translate(0 -64)" fill="#f44336"/>
</svg>
