<svg id="instagram" xmlns="http://www.w3.org/2000/svg" xmlns:xlink="http://www.w3.org/1999/xlink" width="177.043" height="177.043" viewBox="0 0 177.043 177.043">
  <defs>
    <linearGradient id="linear-gradient" x1="0.5" y1="0.008" x2="0.5" y2="0.998" gradientUnits="objectBoundingBox">
      <stop offset="0" stop-color="#e09b3d"/>
      <stop offset="0.3" stop-color="#c74c4d"/>
      <stop offset="0.6" stop-color="#c21975"/>
      <stop offset="1" stop-color="#7024c4"/>
    </linearGradient>
    <linearGradient id="linear-gradient-2" y1="-0.451" y2="1.462" xlink:href="#linear-gradient"/>
    <linearGradient id="linear-gradient-3" y1="-1.396" y2="6.586" xlink:href="#linear-gradient"/>
  </defs>
  <path id="Path_8" data-name="Path 8" d="M124.3,0H52.742A52.8,52.8,0,0,0,0,52.742V124.3a52.8,52.8,0,0,0,52.742,52.742H124.3A52.8,52.8,0,0,0,177.043,124.3V52.742A52.8,52.8,0,0,0,124.3,0Zm34.932,124.3A34.932,34.932,0,0,1,124.3,159.233H52.742A34.932,34.932,0,0,1,17.811,124.3V52.742A34.932,34.932,0,0,1,52.742,17.811H124.3a34.932,34.932,0,0,1,34.932,34.932V124.3Z" transform="translate(0 0)" fill="url(#linear-gradient)"/>
  <path id="Path_9" data-name="Path 9" d="M178.546,133a45.546,45.546,0,1,0,45.546,45.546A45.6,45.6,0,0,0,178.546,133Zm0,73.376a27.83,27.83,0,1,1,27.83-27.83A27.83,27.83,0,0,1,178.546,206.376Z" transform="translate(-90.024 -90.024)" fill="url(#linear-gradient-2)"/>
  <circle id="Ellipse_1" data-name="Ellipse 1" cx="11.035" cy="11.035" r="11.035" transform="translate(123.328 32.078)" fill="url(#linear-gradient-3)"/>
</svg>
