<svg xmlns="http://www.w3.org/2000/svg" width="177.043" height="177.043" viewBox="0 0 177.043 177.043">
  <path id="linkedin" d="M161.028,0H16.015A16.015,16.015,0,0,0,0,16.015V161.028a16.015,16.015,0,0,0,16.015,16.015H161.028a16.015,16.015,0,0,0,16.015-16.015V16.015A16.015,16.015,0,0,0,161.028,0ZM54.785,152.871a4.66,4.66,0,0,1-4.661,4.661H30.285a4.66,4.66,0,0,1-4.661-4.661V69.706a4.66,4.66,0,0,1,4.661-4.661H50.124a4.66,4.66,0,0,1,4.661,4.661ZM40.2,57.206A18.847,18.847,0,1,1,59.052,38.359,18.847,18.847,0,0,1,40.2,57.206Zm118.258,96.04a4.285,4.285,0,0,1-4.285,4.285H132.889a4.285,4.285,0,0,1-4.285-4.285V114.237c0-5.819,1.707-25.5-15.208-25.5-13.12,0-15.781,13.471-16.316,19.516v44.993a4.285,4.285,0,0,1-4.285,4.285H72.205a4.285,4.285,0,0,1-4.285-4.285V69.331a4.285,4.285,0,0,1,4.285-4.285H92.8a4.285,4.285,0,0,1,4.285,4.285v7.256c4.865-7.3,12.095-12.936,27.489-12.936,34.089,0,33.894,31.847,33.894,49.346v40.25Z" fill="#0077b7"/>
</svg>
