<svg xmlns="http://www.w3.org/2000/svg" width="30.003" height="30.003" viewBox="0 0 30.003 30.003">
  <path id="member_github_ic" d="M15,0A15.06,15.06,0,0,0,0,15,15.57,15.57,0,0,0,11.486,30V25.04a3.612,3.612,0,0,1-4.049-1.8c-.341-.575-.945-1.2-1.575-1.153l-.155-1.751a3.615,3.615,0,0,1,3.241,2.006,1.944,1.944,0,0,0,1.128.965,2.363,2.363,0,0,0,1.476-.128,4.12,4.12,0,0,1,1.034-2.114h0C8.678,20.48,7.121,18.407,6.5,16.771a6.883,6.883,0,0,1,1.069-6.6.236.236,0,0,0,.059-.182,5.754,5.754,0,0,1,.175-3.841A6.074,6.074,0,0,1,11.134,7.4l.421.253c.176.105.121.045.3.032A12.731,12.731,0,0,1,15,7.241a12.786,12.786,0,0,1,3.192.454l.136.014c-.012,0,.037-.009.119-.058,3.046-1.845,2.936-1.242,3.753-1.507a5.853,5.853,0,0,1,.171,3.843c-.089.273,2.64,2.772,1.128,6.783-.618,1.637-2.175,3.71-6.083,4.293h0a3.857,3.857,0,0,1,1.1,2.744V30A15.57,15.57,0,0,0,30,15,15.06,15.06,0,0,0,15,0Zm0,0"/>
</svg>
