<svg xmlns="http://www.w3.org/2000/svg" width="30.003" height="30.003" viewBox="0 0 30.003 30.003">
  <path id="member_website_ic" d="M29.967,14A15,15,0,0,0,16,.034V0H14V.034A15,15,0,0,0,.034,14H0v2H.034A15,15,0,0,0,14,29.967V30h2v-.036A15,15,0,0,0,29.967,16H30V14ZM9.391,3.27A15.9,15.9,0,0,0,7.039,8h-3A13.07,13.07,0,0,1,9.391,3.27ZM3,10H6.513a23.754,23.754,0,0,0-.492,4H2.038A12.889,12.889,0,0,1,3,10Zm-.958,6H6.021a23.754,23.754,0,0,0,.492,4H3A12.889,12.889,0,0,1,2.038,16Zm2,6H7.037a15.858,15.858,0,0,0,2.354,4.73A13.056,13.056,0,0,1,4.042,22ZM14,27.875c-2.056-.55-3.826-2.758-4.9-5.873H14ZM14,20H8.539a22.355,22.355,0,0,1-.518-4H14Zm0-6H8.021a22.355,22.355,0,0,1,.518-4H14Zm0-6H9.1C10.175,4.886,11.945,2.678,14,2.13ZM25.961,8H22.968a15.86,15.86,0,0,0-2.356-4.73A13.082,13.082,0,0,1,25.961,8ZM16,2.13c2.054.548,3.826,2.756,4.9,5.871H16ZM16,10h5.461a22.535,22.535,0,0,1,.52,4H16Zm0,6h5.981a22.172,22.172,0,0,1-.52,4H16Zm0,11.873V22h4.9C19.828,25.117,18.056,27.325,16,27.875Zm4.61-1.142A15.98,15.98,0,0,0,22.968,22h2.992A13.068,13.068,0,0,1,20.612,26.733ZM27.007,20H23.49a23.754,23.754,0,0,0,.492-4h3.98A12.831,12.831,0,0,1,27.007,20Zm-3.024-6a23.754,23.754,0,0,0-.492-4h3.516a12.889,12.889,0,0,1,.958,4Z" fill="#030104"/>
</svg>
