<svg id="member_linkedin_ic" xmlns="http://www.w3.org/2000/svg" width="30.003" height="30.003" viewBox="0 0 30.003 30.003">
  <circle id="Ellipse_1" data-name="Ellipse 1" cx="15.002" cy="15.002" r="15.002" transform="translate(0 0)"/>
  <g id="Group_1" data-name="Group 1" transform="translate(7.238 6.41)">
    <path id="Path_1" data-name="Path 1" d="M43.794,33.768v6.185H40.209v-5.77c0-1.449-.518-2.438-1.816-2.438a1.961,1.961,0,0,0-1.839,1.311,2.454,2.454,0,0,0-.119.874v6.023H32.848s.048-9.773,0-10.785h3.586V30.7c-.007.012-.017.024-.024.035h.024V30.7a3.56,3.56,0,0,1,3.232-1.782c2.359,0,4.128,1.541,4.128,4.853Zm-14.7-9.8A1.869,1.869,0,1,0,29.05,27.7h.023a1.869,1.869,0,1,0,.024-3.727ZM27.281,39.952h3.585V29.168H27.281Z" transform="translate(-27.068 -23.969)" fill="#f1f2f2"/>
  </g>
</svg>
