<svg xmlns="http://www.w3.org/2000/svg" viewBox="0 0 176.919 154.177">
  <defs>
    <style>
      .cls-1 {
        fill: #424242;
      }

      .cls-2 {
        fill: none;
        stroke: #666;
        stroke-linecap: round;
        stroke-linejoin: round;
        stroke-width: 9px;
      }

      .cls-3 {
        fill: #666;
      }
    </style>
  </defs>
  <g id="training" transform="translate(-4148.121 503.483)">
    <g id="Group_95" data-name="Group 95" transform="translate(349 -79)">
      <g id="Group_92" data-name="Group 92" transform="translate(-1)">
        <g id="Group_94" data-name="Group 94" transform="translate(3804.621 -424.483)">
          <path id="Path_689" data-name="Path 689" class="cls-1" d="M11.651-1.483c5.8,0,11.492-.148,11.344,5.983S16.66,9.565,10.861,9.565,0,10.533,0,4.5,5.852-1.483,11.651-1.483Z" transform="translate(40.478 1.483)"/>
          <path id="Path_688" data-name="Path 688" class="cls-2" d="M3906.382-412.622H3803.621v93.242h104.87" transform="translate(-3803.621 423.948)"/>
        </g>
      </g>
      <path id="Path_690" data-name="Path 690" class="cls-2" d="M3826.767-274.407l29.975-29.774,29.975,29.774" transform="translate(0 -0.4)"/>
      <g id="Group_93" data-name="Group 93">
        <path id="Path_692" data-name="Path 692" class="cls-3" d="M18,0A18,18,0,1,1,0,18,18,18,0,0,1,18,0Z" transform="translate(3932 -421)"/>
        <path id="Path_691" data-name="Path 691" class="cls-3" d="M-38.845,0H13.863l4.828,7.606L23.866,0h14.2s7.313,3.985,5.593,7.606c0,0,.86,43.052,0,47.478s-7.665,4.426-7.665,4.426v46.27s-1.532,4.808-8.813,5.22-8.488-5.22-8.488-5.22c-4.023,6.84-8.716,5.852-11.266,5.22A13.482,13.482,0,0,1,0,105.78V16.33H-38.845s-4.426-4.642-4.426-8.724S-38.845,0-38.845,0Z" transform="translate(3932 -383)"/>
      </g>
    </g>
  </g>
</svg>
